<svg width="32" height="32" fill="none" xmlns="http://www.w3.org/2000/svg"><path d="M5.889 3.6H24.11a2.289 2.289 0 012.29 2.289V10.2a.8.8 0 001.6 0V5.889A3.889 3.889 0 0024.111 2H5.89A3.889 3.889 0 002 5.889V24.11A3.889 3.889 0 005.889 28H17.31a.8.8 0 000-1.6H5.89a2.289 2.289 0 01-2.29-2.289V5.89A2.289 2.289 0 015.889 3.6z" fill="#2D2D2D"/><path d="M7.8 9a.8.8 0 100 1.6h10.4a.8.8 0 000-1.6H7.8zM7 15.8a.8.8 0 01.8-.8h6.4a.8.8 0 010 1.6H7.8a.8.8 0 01-.8-.8z" fill="#2D2D2D"/><path fill-rule="evenodd" clip-rule="evenodd" d="M18 19c0 1.777.773 3.374 2 4.472v4.844a1 1 0 001.479.878L24 27.82l2.521 1.374A1 1 0 0028 28.316v-4.844A6 6 0 1018 19zm10.4 0a4.4 4.4 0 11-8.8 0 4.4 4.4 0 018.8 0zm-2.084 5.537A5.981 5.981 0 0124 25c-.82 0-1.603-.165-2.316-.463v2.89L24 26.165l2.316 1.262v-2.89z" fill="#2D2D2D"/></svg>
