<svg width="32" height="32" fill="none" xmlns="http://www.w3.org/2000/svg"><path d="M12.362 8.37a4.508 4.508 0 10-9.016 0 4.508 4.508 0 009.016 0zm16.289.008a4.508 4.508 0 10-9.016 0 4.508 4.508 0 009.016 0zm-16.287 15.25a4.508 4.508 0 10-9.016 0 4.508 4.508 0 009.016 0z" stroke="#2D2D2D" stroke-width="1.6" stroke-linecap="round" stroke-linejoin="round"/><path fill-rule="evenodd" clip-rule="evenodd" d="M8.411 7.58h11.294a4.532 4.532 0 000 1.6H8.41a.8.8 0 110-1.6zm13.16 4.503a4.535 4.535 0 01-1.131-1.131l-9.444 9.443c.389.378.71.825.942 1.322l9.634-9.634zm-9.28 10.743a4.53 4.53 0 010 1.6h11.853a.8.8 0 100-1.6H12.29z" fill="#2D2D2D"/><path d="M24.147 28.138a4.508 4.508 0 100-9.015 4.508 4.508 0 000 9.015z" stroke="#2D2D2D" stroke-width="1.6" stroke-linecap="round" stroke-linejoin="round"/></svg>
