<svg width="32" height="32" viewBox="0 0 32 32" fill="none" xmlns="http://www.w3.org/2000/svg">
  <circle cx="16" cy="16" r="15" fill="#FF0000"/>
  <path d="M24.5 12.5C24.3 11.5 23.5 10.7 22.5 10.5C20.9 10 16 10 16 10C16 10 11.1 10 9.5 10.5C8.5 10.7 7.7 11.5 7.5 12.5C7 14.1 7 16 7 16C7 16 7 17.9 7.5 19.5C7.7 20.5 8.5 21.3 9.5 21.5C11.1 22 16 22 16 22C16 22 20.9 22 22.5 21.5C23.5 21.3 24.3 20.5 24.5 19.5C25 17.9 25 16 25 16C25 16 25 14.1 24.5 12.5Z" fill="white"/>
  <path d="M14 19V13L19 16L14 19Z" fill="#FF0000"/>
</svg>
